<svg width="269" height="269" viewBox="0 0 269 269" fill="none" xmlns="http://www.w3.org/2000/svg">
<g filter="url(#filter0_d_2_472)">
<path d="M118.546 97.5591C125.644 84.825 129.194 78.458 134.5 78.458C139.806 78.458 143.356 84.825 150.454 97.5591L152.291 100.854C154.308 104.472 155.316 106.281 156.889 107.475C158.461 108.669 160.421 109.112 164.338 109.998L167.903 110.805C181.688 113.925 188.58 115.484 190.22 120.757C191.86 126.03 187.161 131.524 177.764 142.514L175.332 145.356C172.662 148.479 171.327 150.04 170.727 151.972C170.126 153.904 170.328 155.987 170.731 160.153L171.099 163.946C172.52 178.608 173.229 185.939 168.937 189.197C164.644 192.457 158.191 189.486 145.285 183.543L141.946 182.005C138.277 180.317 136.444 179.472 134.5 179.472C132.557 179.472 130.723 180.317 127.054 182.005L123.716 183.543C110.81 189.486 104.356 192.457 100.063 189.197C95.7705 185.939 96.4808 178.608 97.9016 163.946L98.2691 160.153C98.6729 155.987 98.8747 153.904 98.2741 151.972C97.6734 150.04 96.3382 148.479 93.6678 145.356L91.2366 142.514C81.8392 131.524 77.1405 126.03 78.7803 120.757C80.4201 115.484 87.3123 113.925 101.097 110.805L104.663 109.998C108.58 109.112 110.539 108.669 112.112 107.475C113.684 106.281 114.693 104.472 116.709 100.854L118.546 97.5591Z" fill="url(#paint0_linear_2_472)" stroke="#1C274C" stroke-width="1.5"/>
<path d="M134.5 22.417V44.8337" stroke="#1C274C" stroke-width="1.5" stroke-linecap="round"/>
<path d="M134.5 224.167V246.584" stroke="#1C274C" stroke-width="1.5" stroke-linecap="round"/>
<path d="M22.4165 134.5H44.8332" stroke="#1C274C" stroke-width="1.5" stroke-linecap="round"/>
<path d="M224.167 134.5H246.583" stroke="#1C274C" stroke-width="1.5" stroke-linecap="round"/>
<path d="M67.25 201.75L71.095 197.905" stroke="#1C274C" stroke-width="1.5" stroke-linecap="round"/>
<path d="M197.902 71.0974L201.75 67.25" stroke="#1C274C" stroke-width="1.5" stroke-linecap="round"/>
<path d="M201.75 201.75L197.906 197.905" stroke="#1C274C" stroke-width="1.5" stroke-linecap="round"/>
<path d="M71.0974 71.0974L67.25 67.25" stroke="#1C274C" stroke-width="1.5" stroke-linecap="round"/>
</g>
<defs>
<filter id="filter0_d_2_472" x="-4" y="0" width="277" height="277" filterUnits="userSpaceOnUse" color-interpolation-filters="sRGB">
<feFlood flood-opacity="0" result="BackgroundImageFix"/>
<feColorMatrix in="SourceAlpha" type="matrix" values="0 0 0 0 0 0 0 0 0 0 0 0 0 0 0 0 0 0 127 0" result="hardAlpha"/>
<feOffset dy="4"/>
<feGaussianBlur stdDeviation="2"/>
<feComposite in2="hardAlpha" operator="out"/>
<feColorMatrix type="matrix" values="0 0 0 0 0 0 0 0 0 0 0 0 0 0 0 0 0 0 0.5 0"/>
<feBlend mode="normal" in2="BackgroundImageFix" result="effect1_dropShadow_2_472"/>
<feBlend mode="normal" in="SourceGraphic" in2="effect1_dropShadow_2_472" result="shape"/>
</filter>
<linearGradient id="paint0_linear_2_472" x1="59.5" y1="207" x2="228" y2="28.5" gradientUnits="userSpaceOnUse">
<stop stop-color="#FFE999"/>
<stop offset="1" stop-color="#FFE999" stop-opacity="0"/>
</linearGradient>
</defs>
</svg>
