<svg width="140" height="140" viewBox="0 0 140 140" fill="none" xmlns="http://www.w3.org/2000/svg">
<path d="M11.6665 93.333C11.6665 76.834 11.6665 68.5845 16.7921 63.4588C21.9178 58.333 30.1673 58.333 46.6665 58.333H93.3332C109.832 58.333 118.082 58.333 123.207 63.4588C128.333 68.5845 128.333 76.834 128.333 93.333C128.333 109.832 128.333 118.082 123.207 123.207C118.082 128.333 109.832 128.333 93.3332 128.333H46.6665C30.1673 128.333 21.9178 128.333 16.7921 123.207C11.6665 118.082 11.6665 109.832 11.6665 93.333Z" fill="url(#paint0_linear_2_510)" stroke="#1C274C" stroke-width="1.5"/>
<path d="M35 58.3337V46.667C35 27.337 50.67 11.667 70 11.667C86.3088 11.667 100.012 22.8213 103.898 37.917" stroke="#1C274C" stroke-width="1.5" stroke-linecap="round"/>
<path d="M46.6665 93.333H46.719M69.9473 93.333H69.9998M93.2807 93.333H93.3332" stroke="#1C274C" stroke-width="2" stroke-linecap="round" stroke-linejoin="round"/>
<defs>
<linearGradient id="paint0_linear_2_510" x1="22.5" y1="173" x2="128" y2="38" gradientUnits="userSpaceOnUse">
<stop stop-color="#D9D9D9"/>
<stop offset="1" stop-color="#D9D9D9" stop-opacity="0"/>
</linearGradient>
</defs>
</svg>
