<svg width="160" height="146" viewBox="0 0 160 146" fill="none" xmlns="http://www.w3.org/2000/svg">
<path d="M13.3334 97.0423C13.3334 79.8876 13.3334 71.3103 19.1912 65.9808C25.0491 60.6514 34.4772 60.6514 53.3334 60.6514H106.667C125.523 60.6514 134.951 60.6514 140.809 65.9808C146.667 71.3103 146.667 79.8876 146.667 97.0423C146.667 114.197 146.667 122.774 140.809 128.104C134.951 133.433 125.523 133.433 106.667 133.433H53.3334C34.4772 133.433 25.0491 133.433 19.1912 128.104C13.3334 122.774 13.3334 114.197 13.3334 97.0423Z" fill="url(#paint0_linear_39_45)" stroke="white" stroke-width="1.5"/>
<path d="M40 60.6517V48.5213C40 28.4232 57.9086 12.1304 80 12.1304C102.091 12.1304 120 28.4232 120 48.5213V60.6517" stroke="white" stroke-width="1.5" stroke-linecap="round"/>
<path d="M53.3334 97.043H53.3934M79.94 97.043H80M106.607 97.043H106.667" stroke="white" stroke-width="2" stroke-linecap="round" stroke-linejoin="round"/>
<defs>
<linearGradient id="paint0_linear_39_45" x1="13.2331" y1="133.534" x2="184.662" y2="41.5037" gradientUnits="userSpaceOnUse">
<stop stop-color="#D9D9D9"/>
<stop offset="1" stop-color="#D9D9D9" stop-opacity="0"/>
</linearGradient>
</defs>
</svg>
