<svg width="269" height="269" viewBox="0 0 269 269" fill="none" xmlns="http://www.w3.org/2000/svg">
<g filter="url(#filter0_d_2_472)">
<path d="M118.546 97.5596C125.644 84.8255 129.194 78.4585 134.5 78.4585C139.806 78.4585 143.356 84.8255 150.454 97.5596L152.291 100.854C154.307 104.473 155.316 106.282 156.889 107.476C158.461 108.67 160.42 109.113 164.338 109.999L167.903 110.806C181.688 113.925 188.58 115.484 190.22 120.758C191.86 126.03 187.161 131.524 177.764 142.514L175.332 145.357C172.662 148.479 171.327 150.041 170.726 151.973C170.126 153.904 170.327 155.988 170.731 160.154L171.099 163.947C172.52 178.608 173.229 185.94 168.936 189.198C164.644 192.457 158.191 189.486 145.285 183.543L141.946 182.006C138.277 180.318 136.444 179.472 134.5 179.472C132.556 179.472 130.723 180.318 127.054 182.006L123.715 183.543C110.809 189.486 104.356 192.457 100.063 189.198C95.7703 185.94 96.4807 178.608 97.9014 163.947L98.2689 160.154C98.6727 155.988 98.8745 153.904 98.2739 151.973C97.6732 150.041 96.338 148.479 93.6676 145.357L91.2364 142.514C81.839 131.524 77.1403 126.03 78.7801 120.758C80.4199 115.484 87.3121 113.925 101.097 110.806L104.663 109.999C108.58 109.113 110.538 108.67 112.111 107.476C113.684 106.282 114.693 104.473 116.709 100.854L118.546 97.5596Z" fill="url(#paint0_linear_2_472)" stroke="white" stroke-width="1.5"/>
<path d="M134.5 22.4165V44.8332" stroke="white" stroke-width="1.5" stroke-linecap="round"/>
<path d="M134.5 224.167V246.584" stroke="white" stroke-width="1.5" stroke-linecap="round"/>
<path d="M22.4167 134.5H44.8333" stroke="white" stroke-width="1.5" stroke-linecap="round"/>
<path d="M224.167 134.5H246.583" stroke="white" stroke-width="1.5" stroke-linecap="round"/>
<path d="M67.25 201.75L71.095 197.905" stroke="white" stroke-width="1.5" stroke-linecap="round"/>
<path d="M197.902 71.0974L201.75 67.25" stroke="white" stroke-width="1.5" stroke-linecap="round"/>
<path d="M201.75 201.75L197.906 197.905" stroke="white" stroke-width="1.5" stroke-linecap="round"/>
<path d="M71.0974 71.0974L67.25 67.25" stroke="white" stroke-width="1.5" stroke-linecap="round"/>
</g>
<defs>
<filter id="filter0_d_2_472" x="-4" y="0" width="277" height="277" filterUnits="userSpaceOnUse" color-interpolation-filters="sRGB">
<feFlood flood-opacity="0" result="BackgroundImageFix"/>
<feColorMatrix in="SourceAlpha" type="matrix" values="0 0 0 0 0 0 0 0 0 0 0 0 0 0 0 0 0 0 127 0" result="hardAlpha"/>
<feOffset dy="4"/>
<feGaussianBlur stdDeviation="2"/>
<feComposite in2="hardAlpha" operator="out"/>
<feColorMatrix type="matrix" values="0 0 0 0 0 0 0 0 0 0 0 0 0 0 0 0 0 0 0.5 0"/>
<feBlend mode="normal" in2="BackgroundImageFix" result="effect1_dropShadow_2_472"/>
<feBlend mode="normal" in="SourceGraphic" in2="effect1_dropShadow_2_472" result="shape"/>
</filter>
<linearGradient id="paint0_linear_2_472" x1="59.4998" y1="207" x2="228" y2="28.5005" gradientUnits="userSpaceOnUse">
<stop stop-color="#FFE999"/>
<stop offset="1" stop-color="#FFE999" stop-opacity="0"/>
</linearGradient>
</defs>
</svg>
